<svg width="219" height="380" viewBox="0 0 219 380" fill="none" xmlns="http://www.w3.org/2000/svg">
<path d="M119.057 368.529L106.798 368.528L100.965 321.24L119.06 321.241L119.057 368.529Z" fill="#A0616A"/>
<path d="M98.0404 365.025H121.684V379.912H83.1536C83.1536 377.957 83.5386 376.021 84.2867 374.215C85.0349 372.409 86.1314 370.768 87.5138 369.386C88.8962 368.003 90.5373 366.907 92.3434 366.159C94.1496 365.41 96.0854 365.025 98.0404 365.025Z" fill="#2F2E41"/>
<path d="M208.811 334.625L199.753 342.888L163.573 311.885L176.941 299.69L208.811 334.625Z" fill="#A0616A"/>
<path d="M190.923 346.202L208.391 330.267L218.424 341.265L189.958 367.233C188.641 365.789 187.621 364.099 186.956 362.26C186.291 360.422 185.996 358.47 186.085 356.517C186.175 354.565 186.648 352.648 187.478 350.878C188.308 349.108 189.479 347.519 190.923 346.202Z" fill="#2F2E41"/>
<path d="M107.002 357.714C105.92 357.718 104.874 357.329 104.057 356.62C103.239 355.911 102.707 354.93 102.558 353.858L91.8748 279.969C91.3422 276.284 91.2916 272.546 91.7241 268.848L102.136 179.873L168.634 185.457L158.598 269.762L196.564 317.102C197.293 318.007 197.643 319.161 197.54 320.319C197.436 321.477 196.887 322.55 196.009 323.311L186.45 331.636C186.001 332.027 185.48 332.325 184.916 332.512C184.352 332.7 183.756 332.775 183.164 332.731C182.571 332.687 181.992 332.526 181.462 332.258C180.931 331.989 180.459 331.618 180.073 331.166L144.099 289.069C138.53 282.535 134.523 274.82 132.38 266.507L127.244 246.478C127.164 246.165 126.985 245.887 126.735 245.684C126.484 245.481 126.175 245.365 125.852 245.352C125.53 245.338 125.212 245.429 124.946 245.611C124.68 245.793 124.479 246.055 124.374 246.36L117.581 265.983L121.878 352.415C121.935 353.601 121.52 354.762 120.726 355.645C119.931 356.529 118.82 357.062 117.634 357.131L107.261 357.707C107.174 357.712 107.088 357.714 107.002 357.714Z" fill="#2F2E41"/>
<path d="M143.954 59.6417C157.519 59.6417 168.515 48.6454 168.515 35.0807C168.515 21.516 157.519 10.5197 143.954 10.5197C130.39 10.5197 119.393 21.516 119.393 35.0807C119.393 48.6454 130.39 59.6417 143.954 59.6417Z" fill="#A0616A"/>
<path d="M1.29691 63.6364C1.88725 64.9827 2.76564 66.1833 3.87015 67.1534C4.97466 68.1236 6.27843 68.8398 7.68967 69.2515C9.10091 69.6633 10.5853 69.7607 12.0382 69.5367C13.4911 69.3127 14.8773 68.7729 16.099 67.9553L48.3023 87.4649L45.7995 70.9653L18.5417 53.3501C17.0321 51.3887 14.8555 50.0492 12.4243 49.5854C9.99306 49.1216 7.47615 49.5657 5.3505 50.8336C3.22485 52.1015 1.63812 54.1052 0.891024 56.4648C0.143927 58.8244 0.288338 61.3761 1.29691 63.6364V63.6364Z" fill="#A0616A"/>
<path d="M142.813 196.856C129.768 196.857 116.193 192.81 102.465 184.827C101.445 184.235 100.668 183.301 100.27 182.191C99.8731 181.081 99.8816 179.866 100.294 178.762L113.063 144.355L110.159 103.815C109.171 90.024 116.046 76.9337 127.674 70.4654C131.845 68.125 136.493 66.7621 141.267 66.4794C146.042 66.1968 150.818 67.0017 155.236 68.8335C159.974 70.8288 164.198 73.8733 167.589 77.7378C170.98 81.6023 173.449 86.186 174.812 91.1435L178.91 105.404C183.882 122.847 183.31 141.403 177.273 158.506L165.398 191.847L165.09 192.031C165.009 192.08 156.86 196.855 142.813 196.856Z" fill="#CCCCCC"/>
<path d="M18.3447 75.082C17.7903 74.2486 17.499 73.2679 17.5085 72.2671C17.518 71.2662 17.8279 70.2912 18.398 69.4685L24.6211 60.4803C25.3151 59.481 26.3492 58.7686 27.5301 58.476C28.7111 58.1835 29.9582 58.3308 31.0384 58.8906L77.1891 82.8913L128.11 77.7867C131.316 77.4818 134.53 78.2732 137.228 80.0314C139.926 81.7896 141.948 84.4107 142.964 87.4666C143.654 89.5784 143.836 91.823 143.497 94.0185C143.158 96.2141 142.306 98.2988 141.011 100.104C139.715 101.909 138.013 103.383 136.042 104.407C134.07 105.432 131.885 105.977 129.664 106L82.1793 106.482C77.1809 106.53 72.254 105.294 67.8698 102.893L20.1046 76.6989C19.3964 76.3094 18.7926 75.7548 18.3447 75.082V75.082Z" fill="#CCCCCC"/>
<path d="M165.12 218.838C166.275 217.929 167.216 216.777 167.878 215.464C168.54 214.152 168.906 212.71 168.95 211.24C168.994 209.771 168.715 208.31 168.133 206.96C167.552 205.609 166.681 204.403 165.583 203.426L177.576 170.411L161.037 173.922L150.832 204.73C149.313 206.684 148.563 209.127 148.725 211.597C148.886 214.067 149.948 216.391 151.71 218.13C153.471 219.869 155.809 220.902 158.28 221.032C160.752 221.163 163.185 220.382 165.12 218.838V218.838Z" fill="#A0616A"/>
<path d="M169.522 199.636C168.936 199.636 168.354 199.533 167.804 199.331L157.541 195.564C156.4 195.144 155.45 194.322 154.87 193.252C154.291 192.182 154.12 190.938 154.391 189.752L166.031 139.053L148.301 91.0463C147.2 88.02 147.158 84.7096 148.183 81.6563C149.207 78.6031 151.237 75.9877 153.94 74.2378C155.811 73.0396 157.938 72.299 160.148 72.076C162.359 71.8531 164.591 72.154 166.663 72.9544C168.735 73.7548 170.59 75.0323 172.077 76.6831C173.563 78.334 174.64 80.3119 175.22 82.4565L187.612 128.298C188.914 133.124 188.956 138.203 187.733 143.05L174.374 195.863C174.102 196.942 173.477 197.899 172.599 198.582C171.721 199.266 170.64 199.637 169.527 199.636H169.522V199.636Z" fill="#CCCCCC"/>
<path d="M145.576 52.4114C146.822 47.2434 147.437 44.3417 148.671 39.1708C149.497 35.7077 147.004 32.1617 143.876 30.5433C140.747 28.925 137.121 28.7391 133.625 28.3965C130.13 28.0539 126.463 27.443 123.739 25.1945C120.082 22.1758 119.036 16.553 120.835 12.1309C121.801 9.95716 123.275 8.04715 125.132 6.56161C126.99 5.07606 129.178 4.05843 131.511 3.59429C136.194 2.73768 141.029 3.48209 145.238 5.70766C146.886 1.83409 151.664 0.149945 155.768 0.825675C159.873 1.5014 163.438 3.99296 166.774 6.51153C172.978 11.195 179.343 16.8728 180.72 24.5937C182.05 32.0501 178.268 39.5748 173.209 45.1486C166.306 52.7292 157.045 57.7552 146.927 59.4114C146.253 58.3906 145.787 57.2469 145.555 56.0458C145.323 54.8447 145.33 53.6097 145.576 52.4114V52.4114Z" fill="black"/>
</svg>
