<svg className="balloon-holder" width="866" height="659" viewBox="0 0 866 659" fill="none" xmlns="http://www.w3.org/2000/svg">
    <g clip-path="url(#clip0_9_2)">
    <path d="M307.917 153.234C307.558 153.234 307.212 153.098 306.95 152.852C306.687 152.607 306.527 152.272 306.502 151.913C305.573 139.292 299.912 127.486 290.652 118.86C281.393 110.233 269.217 105.421 256.561 105.387C255.046 105.387 253.455 105.464 251.832 105.616C251.56 105.641 251.287 105.588 251.045 105.463C250.803 105.337 250.602 105.144 250.467 104.908C244.653 94.7321 235.972 86.494 225.506 81.2213C215.04 75.9486 203.253 73.8749 191.616 75.259C179.979 76.643 169.008 81.4235 160.07 89.0038C151.133 96.5842 144.626 106.629 141.362 117.884C141.276 118.185 141.092 118.45 140.839 118.635C140.586 118.821 140.278 118.917 139.965 118.909L139.587 118.897C139.39 118.891 139.194 118.884 138.996 118.884C129.397 118.914 120.097 122.225 112.638 128.268C105.18 134.311 100.012 142.723 97.9918 152.107C97.9245 152.426 97.7497 152.712 97.4966 152.917C97.2435 153.123 96.9275 153.235 96.6016 153.235H1.42087C1.04472 153.234 0.684325 153.083 0.418701 152.817C0.153077 152.551 0.00390625 152.19 0.00390625 151.814C0.00390625 151.438 0.153077 151.077 0.418701 150.811C0.684325 150.544 1.04472 150.394 1.42087 150.393H95.4646C97.8321 140.632 103.401 131.946 111.282 125.719C119.163 119.493 128.903 116.086 138.947 116.043C142.523 104.476 149.38 94.1977 158.687 86.455C167.993 78.7122 179.348 73.8388 191.371 72.4267C203.395 71.0146 215.57 73.1246 226.417 78.5004C237.264 83.8762 246.316 92.2864 252.474 102.709C253.872 102.6 255.243 102.546 256.561 102.546C269.935 102.582 282.802 107.667 292.588 116.784C302.373 125.901 308.355 138.376 309.336 151.714C309.349 151.9 309.326 152.087 309.266 152.264C309.207 152.441 309.114 152.605 308.992 152.746C308.869 152.887 308.72 153.002 308.553 153.085C308.386 153.168 308.205 153.218 308.018 153.231C307.985 153.233 307.951 153.234 307.917 153.234Z" fill="#CBCBCB"/>
    <path d="M291.013 171.451H58.0145C57.6377 171.451 57.2763 171.301 57.0099 171.034C56.7434 170.768 56.5938 170.407 56.5938 170.03C56.5938 169.653 56.7434 169.292 57.0099 169.025C57.2763 168.759 57.6377 168.609 58.0145 168.609H291.013C291.39 168.609 291.751 168.759 292.018 169.025C292.284 169.292 292.434 169.653 292.434 170.03C292.434 170.407 292.284 170.768 292.018 171.034C291.751 171.301 291.39 171.451 291.013 171.451Z" fill="#CBCBCB"/>
    <path d="M114.844 192.051H36.7038C36.5169 192.052 36.3318 192.015 36.159 191.944C35.9861 191.873 35.8291 191.768 35.6967 191.636C35.5644 191.504 35.4594 191.348 35.3878 191.175C35.3162 191.002 35.2793 190.817 35.2793 190.63C35.2793 190.444 35.3162 190.259 35.3878 190.086C35.4594 189.913 35.5644 189.756 35.6967 189.625C35.8291 189.493 35.9861 189.388 36.159 189.317C36.3318 189.246 36.5169 189.209 36.7038 189.21H114.844C115.22 189.211 115.58 189.361 115.846 189.627C116.111 189.894 116.261 190.254 116.261 190.63C116.261 191.007 116.111 191.367 115.846 191.634C115.58 191.9 115.22 192.05 114.844 192.051Z" fill="#CBCBCB"/>
    <path d="M187.9 468.486C187.9 526.246 127.346 553.883 127.346 553.883C127.346 553.883 66.1705 526.246 64.9284 468.486C64.1983 434.536 92.4566 407 126.414 407C134.489 407 142.484 408.59 149.944 411.68C157.404 414.77 164.182 419.299 169.892 425.009C175.601 430.718 180.13 437.497 183.22 444.956C186.31 452.416 187.9 460.412 187.9 468.486V468.486Z" fill="#E5E5E5"/>
    <path d="M147.842 557.299H106.851L101.882 537.425H152.81L147.842 557.299Z" fill="#CBCBCB"/>
    <path d="M146.444 591.288H108.249V611.192H146.444V591.288Z" fill="white"/>
    <path d="M146.755 611.503H107.938V590.977H146.755V611.503ZM108.559 610.882H146.133V591.598H108.559V610.882Z" fill="#CBCBCB"/>
    <path d="M135.176 559.643H119.517L117.72 556.819H136.973L135.176 559.643Z" fill="#CBCBCB"/>
    <path d="M107.783 557.299H107.162V587.732H107.783V557.299Z" fill="#CBCBCB"/>
    <path d="M147.531 557.299H146.91V587.732H147.531V557.299Z" fill="#CBCBCB"/>
    <path d="M133.572 537.088L133.192 536.596C151.135 522.76 172.523 499.056 172.523 464.706C172.537 452.676 168.999 440.909 162.352 430.881C155.705 420.853 146.245 413.011 135.159 408.338L135.401 407.766C146.6 412.487 156.155 420.408 162.87 430.538C169.584 440.667 173.158 452.554 173.144 464.706C173.144 499.309 151.624 523.167 133.572 537.088Z" fill="#CBCBCB"/>
    <path d="M113.697 537.089L113.318 536.597C131.26 522.76 152.648 499.057 152.648 464.706C152.653 452.757 149.157 441.067 142.593 431.082C136.028 421.097 126.683 413.253 115.71 408.52L115.957 407.95C127.04 412.731 136.481 420.654 143.112 430.741C149.743 440.827 153.274 452.635 153.269 464.706C153.269 499.309 131.75 523.167 113.697 537.089Z" fill="#CBCBCB"/>
    <path d="M139.132 537.088C121.08 523.167 99.5601 499.309 99.5601 464.706C99.5551 452.635 103.086 440.827 109.718 430.74C116.349 420.654 125.789 412.731 136.873 407.95L137.12 408.52C126.147 413.253 116.801 421.096 110.237 431.082C103.672 441.067 100.176 452.757 100.181 464.706C100.181 499.056 121.569 522.76 139.511 536.596L139.132 537.088Z" fill="#CBCBCB"/>
    <path d="M119.258 537.088C101.205 523.167 79.6856 499.309 79.6856 464.706C79.6654 452.506 83.2646 440.573 90.0278 430.419C96.7911 420.264 106.414 412.344 117.68 407.66L117.92 408.234C106.767 412.87 97.2403 420.711 90.545 430.763C83.8496 440.816 80.2866 452.628 80.3066 464.706C80.3066 499.057 101.695 522.76 119.637 536.596L119.258 537.088Z" fill="#CBCBCB"/>
    <path d="M126.725 407H126.104V537.425H126.725V407Z" fill="#CBCBCB"/>
    <path d="M119.417 586.775L108.029 598.163L108.468 598.602L119.857 587.214L119.417 586.775Z" fill="#CBCBCB"/>
    <path d="M124.954 586.585L108.024 604.39L108.474 604.818L125.404 587.013L124.954 586.585Z" fill="#CBCBCB"/>
    <path d="M150.015 586.8H103.435V592.39H150.015V586.8Z" fill="white"/>
    <path d="M150.326 592.7H103.125V586.49H150.326V592.7ZM103.746 592.079H149.705V587.111H103.746V592.079Z" fill="#CBCBCB"/>
    <path d="M305.091 322.105C305.091 360.229 265.122 378.471 265.122 378.471C265.122 378.471 224.744 360.229 223.924 322.105C223.442 299.697 242.094 281.522 264.507 281.522C275.271 281.522 285.593 285.798 293.204 293.409C300.815 301.019 305.091 311.342 305.091 322.105V322.105Z" fill="#E5E5E5"/>
    <path d="M278.65 380.726H251.594L248.315 367.608H281.93L278.65 380.726Z" fill="#CBCBCB"/>
    <path d="M277.728 403.16H252.517V416.298H277.728V403.16Z" fill="white"/>
    <path d="M277.933 416.503H252.312V402.955H277.933V416.503ZM252.722 416.093H277.523V403.365H252.722V416.093Z" fill="#CBCBCB"/>
    <path d="M270.29 382.273H259.954L258.768 380.409H271.476L270.29 382.273Z" fill="#CBCBCB"/>
    <path d="M252.209 380.726H251.799V400.813H252.209V380.726Z" fill="#CBCBCB"/>
    <path d="M278.445 380.726H278.035V400.813H278.445V380.726Z" fill="#CBCBCB"/>
    <path d="M269.231 367.386L268.981 367.061C280.824 357.929 294.941 342.283 294.941 319.611C294.95 311.67 292.615 303.903 288.227 297.284C283.84 290.666 277.596 285.49 270.279 282.405L270.439 282.028C277.83 285.143 284.138 290.372 288.569 297.058C293.001 303.744 295.36 311.589 295.35 319.611C295.35 342.45 281.147 358.197 269.231 367.386Z" fill="#CBCBCB"/>
    <path d="M256.113 367.386L255.863 367.062C267.706 357.929 281.823 342.283 281.823 319.611C281.826 311.724 279.518 304.008 275.186 297.417C270.853 290.827 264.684 285.65 257.442 282.525L257.604 282.149C264.92 285.305 271.151 290.535 275.528 297.192C279.905 303.85 282.236 311.644 282.232 319.611C282.232 342.45 268.029 358.198 256.113 367.386Z" fill="#CBCBCB"/>
    <path d="M272.901 367.386C260.986 358.197 246.782 342.45 246.782 319.611C246.779 311.643 249.11 303.849 253.487 297.192C257.863 290.534 264.095 285.305 271.411 282.149L271.573 282.525C264.331 285.649 258.162 290.826 253.829 297.417C249.496 304.008 247.189 311.723 247.192 319.611C247.192 342.283 261.309 357.929 273.152 367.061L272.901 367.386Z" fill="#CBCBCB"/>
    <path d="M259.783 367.386C247.868 358.197 233.664 342.45 233.664 319.611C233.651 311.558 236.026 303.682 240.49 296.98C244.954 290.277 251.306 285.049 258.742 281.958L258.9 282.336C251.539 285.397 245.251 290.572 240.832 297.207C236.413 303.842 234.061 311.639 234.074 319.611C234.074 342.284 248.191 357.929 260.034 367.061L259.783 367.386Z" fill="#CBCBCB"/>
    <path d="M264.712 281.522H264.302V367.608H264.712V281.522Z" fill="#CBCBCB"/>
    <path d="M259.889 400.181L252.372 407.698L252.662 407.988L260.179 400.471L259.889 400.181Z" fill="#CBCBCB"/>
    <path d="M263.543 400.056L252.369 411.808L252.666 412.091L263.84 400.339L263.543 400.056Z" fill="#CBCBCB"/>
    <path d="M280.085 400.198H249.34V403.887H280.085V400.198Z" fill="white"/>
    <path d="M280.29 404.093H249.135V399.993H280.29V404.093ZM249.545 403.683H279.88V400.403H249.545V403.683Z" fill="#CBCBCB"/>
    <path d="M644.862 374.228C645.119 374.228 645.367 374.13 645.555 373.954C645.744 373.778 645.859 373.538 645.877 373.281C646.542 364.234 650.6 355.772 657.237 349.588C663.874 343.405 672.602 339.956 681.673 339.931C682.759 339.931 683.899 339.987 685.063 340.096C685.258 340.114 685.454 340.076 685.627 339.986C685.801 339.896 685.945 339.757 686.042 339.588C690.209 332.294 696.431 326.389 703.933 322.61C711.435 318.83 719.884 317.344 728.225 318.336C736.566 319.328 744.431 322.755 750.837 328.188C757.243 333.622 761.907 340.821 764.247 348.889C764.309 349.105 764.44 349.295 764.622 349.428C764.803 349.561 765.023 349.63 765.248 349.624L765.519 349.616C765.66 349.611 765.801 349.606 765.943 349.606C772.823 349.627 779.489 352.001 784.835 356.332C790.182 360.664 793.886 366.693 795.334 373.42C795.382 373.648 795.507 373.853 795.689 374C795.87 374.148 796.097 374.228 796.33 374.228H864.555C864.689 374.228 864.822 374.202 864.945 374.151C865.069 374.1 865.182 374.025 865.277 373.931C865.372 373.836 865.447 373.724 865.498 373.6C865.55 373.476 865.576 373.344 865.576 373.21C865.576 373.076 865.55 372.943 865.498 372.819C865.447 372.695 865.372 372.583 865.277 372.488C865.182 372.394 865.069 372.319 864.945 372.268C864.822 372.217 864.689 372.191 864.555 372.191H797.145C795.448 365.195 791.457 358.968 785.808 354.505C780.158 350.043 773.177 347.601 765.978 347.569C763.415 339.279 758.499 331.911 751.829 326.361C745.158 320.811 737.019 317.318 728.401 316.306C719.782 315.294 711.056 316.806 703.281 320.659C695.505 324.513 689.017 330.541 684.603 338.012C683.601 337.934 682.618 337.895 681.673 337.895C672.087 337.921 662.864 341.566 655.85 348.1C648.836 354.635 644.548 363.578 643.845 373.138C643.835 373.272 643.852 373.406 643.895 373.532C643.937 373.659 644.004 373.777 644.092 373.878C644.18 373.978 644.286 374.061 644.406 374.121C644.526 374.181 644.656 374.216 644.789 374.225C644.814 374.227 644.838 374.228 644.862 374.228Z" fill="#CBCBCB"/>
    <path d="M656.978 387.285H823.989C824.259 387.285 824.518 387.178 824.709 386.987C824.9 386.796 825.007 386.537 825.007 386.267C825.007 385.997 824.9 385.738 824.709 385.547C824.518 385.356 824.259 385.248 823.989 385.248H656.978C656.708 385.248 656.449 385.356 656.258 385.547C656.067 385.738 655.96 385.997 655.96 386.267C655.96 386.537 656.067 386.796 656.258 386.987C656.449 387.178 656.708 387.285 656.978 387.285V387.285Z" fill="#CBCBCB"/>
    <path d="M783.254 402.051H839.264C839.533 402.05 839.792 401.943 839.982 401.752C840.172 401.561 840.279 401.302 840.279 401.033C840.279 400.763 840.172 400.505 839.982 400.314C839.792 400.123 839.533 400.015 839.264 400.014H783.254C783.12 400.014 782.988 400.041 782.865 400.092C782.741 400.143 782.629 400.218 782.534 400.313C782.44 400.407 782.365 400.52 782.313 400.643C782.262 400.767 782.236 400.899 782.236 401.033C782.236 401.167 782.262 401.299 782.313 401.422C782.365 401.546 782.44 401.658 782.534 401.753C782.629 401.847 782.741 401.922 782.865 401.974C782.988 402.025 783.12 402.051 783.254 402.051V402.051Z" fill="#CBCBCB"/>
    <path d="M522.992 647.768H519.639L518.044 634.839H522.992V647.768Z" fill="#9F616A"/>
    <path d="M523.847 651.018H513.038V650.881C513.039 649.766 513.483 648.696 514.272 647.907C515.06 647.119 516.13 646.675 517.245 646.674H523.847V651.018Z" fill="#2F2E41"/>
    <path d="M566.219 641.416L563.345 643.143L555.319 632.881L559.56 630.333L566.219 641.416Z" fill="#9F616A"/>
    <path d="M559.36 649.328L559.29 649.211C558.716 648.254 558.546 647.109 558.816 646.027C559.085 644.944 559.774 644.013 560.729 643.438L566.388 640.038L568.625 643.761L559.36 649.328Z" fill="#2F2E41"/>
    <path d="M523.863 645.1L523.806 645.1C522.175 645.095 520.546 645.001 518.925 644.819C518.307 644.758 517.637 644.692 516.83 644.625L516.802 644.62C516.252 644.456 516.236 639.291 516.47 621.609C516.589 612.553 516.725 602.289 516.564 595.752L516.562 595.687L516.611 595.645C519.526 593.089 523.005 591.259 526.763 590.305C530.521 589.351 534.452 589.3 538.234 590.155L538.293 590.168L538.324 590.22C541.618 595.794 546.592 603.823 551.403 611.589C562.446 629.414 565.604 634.657 565.258 635.052L565.216 635.084C564.462 635.461 563.896 635.752 563.415 635.998C561.509 636.985 559.552 637.868 557.551 638.643L557.463 638.679L557.398 638.609C546.193 626.331 536.869 612.616 531.102 599.937C530.428 604.265 529.61 609.917 528.745 615.889C526.26 633.062 524.58 644.37 523.904 645.059L523.863 645.1Z" fill="#2F2E41"/>
    <path d="M738.091 198C738.091 384 543.091 473 543.091 473C543.091 473 346.091 384 342.091 198C339.74 88.6729 430.739 0 540.091 0C649.443 0 738.091 88.6477 738.091 198Z" fill="#6C63FF"/>
    <path d="M547.274 646.307H543.163L541.208 630.453H547.274V646.307Z" fill="#FFB7B7"/>
    <path d="M540.227 645.132H548.154V650.123H535.236C535.236 649.468 535.365 648.819 535.616 648.213C535.867 647.608 536.235 647.058 536.698 646.594C537.162 646.131 537.712 645.763 538.317 645.512C538.923 645.261 539.572 645.132 540.227 645.132Z" fill="#2F2E41"/>
    <path d="M562.696 646.307H558.586L556.63 630.453H562.697L562.696 646.307Z" fill="#FFB7B7"/>
    <path d="M555.65 645.132H563.577V650.123H550.659C550.659 648.8 551.185 647.53 552.121 646.594C553.057 645.658 554.326 645.132 555.65 645.132Z" fill="#2F2E41"/>
    <path d="M547.079 638.32L542.555 638.104C542.169 638.086 541.805 637.921 541.538 637.642C541.271 637.364 541.12 636.994 541.118 636.608L540.802 590.825C540.8 590.608 540.846 590.393 540.935 590.195C541.024 589.997 541.156 589.82 541.319 589.677C541.483 589.535 541.676 589.429 541.884 589.367C542.093 589.306 542.312 589.29 542.527 589.322L560.629 591.949C560.987 591.999 561.315 592.177 561.552 592.449C561.789 592.721 561.921 593.07 561.921 593.431L564.25 635.854C564.251 636.053 564.213 636.25 564.138 636.434C564.063 636.619 563.952 636.786 563.812 636.928C563.672 637.069 563.505 637.181 563.321 637.258C563.137 637.334 562.94 637.374 562.741 637.374H557.863C557.503 637.375 557.154 637.247 556.881 637.013C556.607 636.78 556.427 636.455 556.372 636.099C556.372 636.099 552.688 604.279 552.182 604.297C551.673 604.307 548.649 636.992 548.649 636.992C548.604 637.358 548.427 637.695 548.151 637.94C547.875 638.185 547.52 638.321 547.151 638.322C547.127 638.322 547.103 638.321 547.079 638.32Z" fill="#2F2E41"/>
    <path d="M609.091 484H477.091L461.091 420H625.091L609.091 484Z" fill="#3F3D56"/>
    <path d="M604.591 593.451H481.591V657.549H604.591V593.451Z" fill="white"/>
    <path d="M605.591 658.549H480.591V592.451H605.591V658.549ZM482.591 656.549H603.591V594.451H482.591V656.549Z" fill="#3F3D56"/>
    <path d="M568.304 491.547H517.878L512.091 482.453H574.091L568.304 491.547Z" fill="#3F3D56"/>
    <path d="M480.091 484H478.091V582H480.091V484Z" fill="#3F3D56"/>
    <path d="M608.091 484H606.091V582H608.091V484Z" fill="#3F3D56"/>
    <path d="M563.138 418.916L561.917 417.332C619.695 372.776 688.57 296.444 688.57 185.829C688.616 147.087 677.222 109.194 655.818 76.9022C634.413 44.6103 603.951 19.3571 568.25 4.30956L569.03 2.46777C605.092 17.668 635.864 43.1774 657.485 75.797C679.107 108.416 690.616 146.694 690.57 185.829C690.57 297.256 621.272 374.085 563.138 418.916Z" fill="#3F3D56"/>
    <path d="M499.138 418.916L497.917 417.332C555.695 372.776 624.57 296.444 624.57 185.829C624.585 147.347 613.328 109.705 592.189 77.5498C571.05 45.3949 540.955 20.1367 505.621 4.89502L506.414 3.05908C542.106 18.4554 572.507 43.9699 593.861 76.4511C615.214 108.932 626.586 146.957 626.57 185.829C626.57 297.257 557.272 374.086 499.138 418.916Z" fill="#3F3D56"/>
    <path d="M581.044 418.916C522.91 374.086 453.612 297.257 453.612 185.829C453.596 146.957 464.968 108.932 486.322 76.4503C507.676 43.9691 538.077 18.4546 573.77 3.05859L574.563 4.89452C539.229 20.1359 509.133 45.3941 487.993 77.5491C466.854 109.704 455.597 147.347 455.612 185.829C455.612 296.444 524.487 372.776 582.265 417.332L581.044 418.916Z" fill="#3F3D56"/>
    <path d="M517.044 418.916C458.91 374.086 389.612 297.257 389.612 185.829C389.547 146.54 401.137 108.114 422.916 75.4141C444.696 42.7141 475.685 17.2092 511.964 2.12646L512.735 3.97216C476.821 18.9032 446.142 44.1519 424.582 76.5234C403.021 108.895 391.547 146.934 391.612 185.829C391.612 296.445 460.487 372.776 518.265 417.332L517.044 418.916Z" fill="#3F3D56"/>
    <path d="M541.091 0H539.091V420H541.091V0Z" fill="#3F3D56"/>
    <path d="M517.558 578.918L480.884 615.592L482.298 617.006L518.972 580.332L517.558 578.918Z" fill="#3F3D56"/>
    <path d="M535.386 578.308L480.87 635.645L482.319 637.023L536.836 579.686L535.386 578.308Z" fill="#3F3D56"/>
    <path d="M616.091 579H466.091V597H616.091V579Z" fill="white"/>
    <path d="M617.091 598H465.091V578H617.091V598ZM467.091 596H615.091V580H467.091V596Z" fill="#3F3D56"/>
    <path d="M439.32 488.228C439.062 488.228 438.814 488.13 438.626 487.954C438.438 487.778 438.323 487.538 438.305 487.281C437.639 478.234 433.582 469.772 426.945 463.588C420.307 457.405 411.58 453.956 402.508 453.931C401.423 453.931 400.282 453.987 399.118 454.096C398.924 454.114 398.728 454.076 398.554 453.986C398.381 453.896 398.237 453.757 398.14 453.588C393.973 446.294 387.75 440.389 380.249 436.61C372.747 432.83 364.298 431.344 355.957 432.336C347.616 433.328 339.751 436.755 333.345 442.188C326.939 447.622 322.275 454.822 319.935 462.889C319.873 463.105 319.741 463.295 319.56 463.428C319.379 463.561 319.158 463.63 318.934 463.624L318.663 463.616C318.522 463.611 318.381 463.606 318.239 463.606C311.359 463.627 304.692 466.001 299.346 470.332C294 474.664 290.296 480.693 288.848 487.42C288.8 487.648 288.674 487.853 288.493 488C288.311 488.148 288.085 488.228 287.851 488.228H219.627C219.493 488.228 219.36 488.202 219.236 488.151C219.112 488.1 219 488.025 218.905 487.931C218.81 487.836 218.735 487.724 218.683 487.6C218.632 487.476 218.605 487.344 218.605 487.21C218.605 487.076 218.632 486.943 218.683 486.819C218.735 486.695 218.81 486.583 218.905 486.488C219 486.394 219.112 486.319 219.236 486.268C219.36 486.217 219.493 486.191 219.627 486.191H287.036C288.733 479.195 292.725 472.968 298.374 468.505C304.023 464.043 311.005 461.601 318.204 461.569C320.767 453.279 325.682 445.911 332.353 440.361C339.024 434.811 347.163 431.318 355.781 430.306C364.399 429.294 373.126 430.806 380.901 434.659C388.676 438.513 395.165 444.541 399.579 452.012C400.581 451.934 401.563 451.895 402.508 451.895C412.095 451.921 421.318 455.566 428.332 462.101C435.346 468.635 439.634 477.578 440.337 487.138C440.346 487.272 440.329 487.406 440.287 487.532C440.245 487.659 440.178 487.777 440.09 487.878C440.002 487.979 439.895 488.061 439.776 488.121C439.656 488.181 439.526 488.216 439.392 488.225C439.368 488.227 439.344 488.228 439.32 488.228Z" fill="#CBCBCB"/>
    <path d="M427.204 501.285H260.193C260.059 501.285 259.926 501.259 259.802 501.208C259.678 501.157 259.566 501.082 259.471 500.988C259.376 500.893 259.301 500.781 259.249 500.657C259.198 500.533 259.171 500.401 259.171 500.267C259.171 500.133 259.198 500 259.249 499.876C259.301 499.752 259.376 499.64 259.471 499.545C259.566 499.451 259.678 499.376 259.802 499.325C259.926 499.274 260.059 499.248 260.193 499.248H427.204C427.474 499.248 427.733 499.356 427.924 499.547C428.115 499.738 428.222 499.997 428.222 500.267C428.222 500.537 428.115 500.796 427.924 500.987C427.733 501.178 427.474 501.285 427.204 501.285Z" fill="#CBCBCB"/>
    <path d="M300.927 516.051H244.918C244.784 516.052 244.651 516.025 244.527 515.974C244.403 515.924 244.29 515.849 244.195 515.754C244.101 515.659 244.025 515.547 243.974 515.423C243.922 515.299 243.896 515.167 243.896 515.033C243.896 514.899 243.922 514.766 243.974 514.642C244.025 514.519 244.101 514.406 244.195 514.312C244.29 514.217 244.403 514.142 244.527 514.091C244.651 514.04 244.784 514.014 244.918 514.014H300.927C301.061 514.014 301.194 514.04 301.318 514.091C301.442 514.142 301.554 514.217 301.649 514.312C301.744 514.406 301.82 514.519 301.871 514.642C301.922 514.766 301.949 514.899 301.949 515.033C301.949 515.167 301.922 515.299 301.871 515.423C301.82 515.547 301.744 515.659 301.649 515.754C301.554 515.849 301.442 515.924 301.318 515.974C301.194 516.025 301.061 516.052 300.927 516.051V516.051Z" fill="#CBCBCB"/>
    </g>
    <defs>
    <clipPath id="clip0_9_2">
    <rect width="865.573" height="658.549" fill="white"/>
    </clipPath>
    </defs>
    </svg>
    