<svg width="549" height="549" viewBox="0 0 549 549" fill="none" xmlns="http://www.w3.org/2000/svg">
    <path d="M318.781 322.825L219.066 231.25V322.825H208.151V213.675H217.586L316.931 305.25V213.675H328.031V322.825H318.781ZM338.391 333.185V203.315H306.756V281.94L221.101 203.315H197.791V333.185H229.426V254.375L315.266 333.185H338.391ZM193.166 337.81V198.69H222.766L302.131 271.395V198.69H343.016L360.961 217.745V355.755H332.101L251.996 282.31V355.755H212.221L193.166 337.81Z" fill="black" />
    <path fill-rule="evenodd" clip-rule="evenodd" d="M276.405 14.1415L14.1416 271.686L271.686 533.95L533.95 276.405L276.405 14.1415ZM0 271.558L271.558 548.091L548.091 276.533L276.533 -1.40329e-05L0 271.558Z" fill="black" />
</svg>
    