<svg width="432" height="709" viewBox="0 0 432 709" fill="none" xmlns="http://www.w3.org/2000/svg">
    <path d="M111.054 504.884C172.276 504.884 221.906 455.253 221.906 394.031C221.906 332.808 172.276 283.178 111.054 283.178C49.8312 283.178 0.200684 332.808 0.200684 394.031C0.200684 455.253 49.8312 504.884 111.054 504.884Z" fill="#E7BCBC"/>
    <path d="M111.358 394.03H111.663L117.145 708.317H105.572L111.358 394.03Z" fill="#E7BCBC"/>
    <path d="M349.054 559.938C393.707 559.938 429.906 523.739 429.906 479.085C429.906 434.432 393.707 398.232 349.054 398.232C304.4 398.232 268.201 434.432 268.201 479.085C268.201 523.739 304.4 559.938 349.054 559.938Z" fill="#E7BCBC"/>
    <path d="M247.225 367.951C348.832 367.951 431.201 285.583 431.201 183.976C431.201 82.3687 348.832 0 247.225 0C145.618 0 63.2495 82.3687 63.2495 183.976C63.2495 285.583 145.618 367.951 247.225 367.951Z" fill="#E4E4E4"/>
    <path opacity="0.1" d="M383.067 61.0945C400.228 101.237 402.556 146.173 389.635 187.874C376.714 229.574 349.386 265.322 312.535 288.728C275.684 312.135 231.71 321.675 188.472 315.645C145.234 309.614 105.549 288.406 76.509 255.809C86.9921 280.334 102.682 302.287 122.492 320.146C142.301 338.006 165.757 351.345 191.233 359.24C216.71 367.134 243.598 369.395 270.036 365.867C296.473 362.338 321.827 353.104 344.341 338.803C366.855 324.503 385.991 305.479 400.423 283.049C414.855 260.62 424.238 235.32 427.921 208.904C431.605 182.488 429.501 155.587 421.756 130.064C414.011 104.542 400.81 81.0084 383.067 61.0945Z" fill="black"/>
    <path d="M246.72 183.975H246.214L237.116 705.577H256.323L246.72 183.975Z" fill="#E4E4E4"/>
    </svg>
    