<svg width="432" height="709" viewBox="0 0 432 709" fill="none" xmlns="http://www.w3.org/2000/svg">
    <path d="M111.177 504.884C172.399 504.884 222.03 455.253 222.03 394.031C222.03 332.808 172.399 283.178 111.177 283.178C49.9548 283.178 0.324219 332.808 0.324219 394.031C0.324219 455.253 49.9548 504.884 111.177 504.884Z" fill="#B3B3B3"/>
    <path d="M111.481 394.03H111.786L117.268 708.317H105.695L111.481 394.03Z" fill="#B3B3B3"/>
    <path d="M349.177 559.938C393.831 559.938 430.03 523.739 430.03 479.085C430.03 434.432 393.831 398.232 349.177 398.232C304.523 398.232 268.324 434.432 268.324 479.085C268.324 523.739 304.523 559.938 349.177 559.938Z" fill="#B3B3B3"/>
    <path d="M349.399 479.085H349.622L353.62 708.317H345.179L349.399 479.085Z" fill="#B3B3B3"/>
    <path d="M247.349 367.951C348.956 367.951 431.324 285.583 431.324 183.976C431.324 82.3687 348.956 0 247.349 0C145.742 0 63.373 82.3687 63.373 183.976C63.373 285.583 145.742 367.951 247.349 367.951Z" fill="#6C63FF"/>
    <path opacity="0.1" d="M383.19 61.0945C400.351 101.237 402.679 146.173 389.758 187.874C376.837 229.574 349.51 265.322 312.658 288.728C275.807 312.135 231.833 321.675 188.595 315.645C145.357 309.614 105.673 288.406 76.6323 255.809C87.1154 280.334 102.805 302.287 122.615 320.146C142.424 338.006 165.88 351.345 191.357 359.24C216.833 367.134 243.722 369.395 270.159 365.867C296.596 362.338 321.95 353.104 344.464 338.803C366.978 324.503 386.114 305.479 400.546 283.049C414.978 260.62 424.361 235.32 428.045 208.904C431.728 182.488 429.625 155.587 421.88 130.064C414.135 104.542 400.933 81.0084 383.19 61.0945Z" fill="black"/>
    <path d="M246.843 183.975H246.337L237.239 705.577H256.446L246.843 183.975Z" fill="#3F3D56"/>
    </svg>
    